# xmcd CD database file
#
# Track frame offsets:
#	150
#	15903
#	28789
#	40684
#	53443
#	67823
#	83440
#	98117
#	117098
#	132237
#	142830
#	163219
#
# Disc length: 2355 seconds
#
# Revision: 1
# Processed by: cddbd v1.5.2PL0 Copyright (c) Steve Scherf et al.
# Submitted via: CDex 1.51
#
DISCID=8409310c
DTITLE=Chuck Mead - Back At The Quonset Hut
DYEAR=2012
DGENRE=Country
TTITLE0=Wabash Cannonball
TTITLE1=Honky Tonk Hardwood Floor
TTITLE2=Hey Joe
TTITLE3=Settin' The Woods On Fire
TTITLE4=Apartment #9
TTITLE5=You Better Treat Your Man Right
TTITLE6=Girl On The Billboard
TTITLE7=Cat Clothes
TTITLE8=Be Bop A Lula
TTITLE9=Tennessee Border
TTITLE10=Sittin' And Thinkin'
TTITLE11=Pickin' WildMountain Berries
EXTD=YEAR: 2012
EXTT0=
EXTT1=
EXTT2=
EXTT3=
EXTT4=
EXTT5=
EXTT6=
EXTT7=
EXTT8=
EXTT9=
EXTT10=
EXTT11=
PLAYORDER=
